PathFileType	4	(X/Y/Z)	C:/Users/opensim2020/Desktop/walking_exp_matlab/subject03_walking11_straight_02.trc																																																																																																																																								
DataRate	CameraRate	NumFrames	NumMarkers	Units	OrigDataRate	OrigDataStartFrame	OrigNumFrames																																																																																																																																				
100	100	7	46	mm	100	1799	357																																																																																																																																				
Frame#	Time	LFHD			RFHD			LBHD			RBHD			C7			T10			CLAV			STRN			RBAK			LSHO			LUPA			LELB			LFRM			LWRA			LWRB			LFIN			RSHO			RUPA			RELB			RFRM			RWRA			RWRB			RFIN			LASI			RASI			LPSI			RPSI			LTHI			LKNE			LTIB			LANK			LHEE			LTOE			RTHI			RKNE			RTIB			RANK			RHEE			RTOE			*39			*40			*41			*42			*43			*44			*45		
		X1	Y1	Z1	X2	Y2	Z2	X3	Y3	Z3	X4	Y4	Z4	X5	Y5	Z5	X6	Y6	Z6	X7	Y7	Z7	X8	Y8	Z8	X9	Y9	Z9	X10	Y10	Z10	X11	Y11	Z11	X12	Y12	Z12	X13	Y13	Z13	X14	Y14	Z14	X15	Y15	Z15	X16	Y16	Z16	X17	Y17	Z17	X18	Y18	Z18	X19	Y19	Z19	X20	Y20	Z20	X21	Y21	Z21	X22	Y22	Z22	X23	Y23	Z23	X24	Y24	Z24	X25	Y25	Z25	X26	Y26	Z26	X27	Y27	Z27	X28	Y28	Z28	X29	Y29	Z29	X30	Y30	Z30	X31	Y31	Z31	X32	Y32	Z32	X33	Y33	Z33	X34	Y34	Z34	X35	Y35	Z35	X36	Y36	Z36	X37	Y37	Z37	X38	Y38	Z38	X39	Y39	Z39	X40	Y40	Z40	X41	Y41	Z41	X42	Y42	Z42	X43	Y43	Z43	X44	Y44	Z44	X45	Y45	Z45	X46	Y46	Z46
																																																																																																																																											
1	0	-1126.28137	1609.02661	952.01129	-1125.11499	1618.30103	1084.6637	-1249.78735	1554.03918	960.10925	-1243.64868	1563.11206	1090.39136	-1272.09058	1408.15088	1031.42554	-1321.60242	1098.22595	1036.94446	-1154.46692	1324.58325	1020.09906	-1122.03455	1157.00708	1013.47253	-1322.06262	1239.1488	1138.09021	-1217.44238	1363.26489	869.31409	-1261.58313	1167.81982	804.39258	-1269.46191	1044.64319	793.21613	-1241.0199	918.07727	793.30157	-1211.849	803.66498	825.90656	-1243.92627	804.48578	780.47229	-1219.94861	724.31207	788.76465	-1177.88074	1352.36157	1181.96057	-1146.30859	1135.68335	1258.99487	-1111.60254	1028.37854	1270.17749	-1070.22266	898.2041	1267.57166	-1031.27893	809.76764	1225.67664	-1051.02844	800.08691	1274.57947	-1015.4043	736.27838	1260.21838	-1167.82312	930.81152	907.98315	-1154.23389	928.79633	1144.85962	-1328.13843	948.18066	964.20386	-1316.46619	963.2547	1113.60608	-1153.76208	632.97479	856.78265	-1080.14868	470.90866	894.77631	-1081.51331	278.18118	889.86389	-1042.00891	70.08344	921.35669	-1073.23499	28.10746	960.71484	-891.37286	58.22916	942.55389	-1236.30176	637.75415	1182.86743	-1251.5769	458.53439	1147.86792	-1327.39392	281.04031	1153.23682	-1392.35291	73.36158	1104.18506	-1439.10071	44.01485	1054.66162	-1253.35718	30.29605	1091.22998	-1212.79065	1664.3219	1001.35437	NaN	NaN	NaN	NaN	NaN	NaN	NaN	NaN	NaN	NaN	NaN	NaN	NaN	NaN	NaN	NaN	NaN	NaN
2	0.01	-1119.36145	1608.05237	951.04608	-1118.03296	1617.47803	1083.66248	-1242.87207	1552.9939	959.33118	-1236.52234	1562.16626	1089.64197	-1264.89063	1407.27917	1030.63037	-1314.76709	1097.43689	1036.18958	-1147.29736	1323.60657	1019.4621	-1115.09766	1155.87122	1013.10345	-1315.16028	1238.53333	1137.41833	-1210.16113	1362.20984	868.52338	-1255.18066	1166.6825	804.52856	-1263.77612	1043.5238	793.85516	-1236.15747	916.74219	794.05725	-1207.42419	802.21637	826.66309	-1239.98486	803.18549	781.49005	-1216.43176	722.77991	789.87164	-1170.73169	1351.53015	1181.21851	-1139.06934	1135.02954	1258.48682	-1104.03369	1027.82385	1269.66455	-1061.77808	897.9024	1266.59094	-1022.28473	809.97119	1224.32312	-1041.92126	799.92957	1273.2196	-1005.83905	736.40234	1258.60046	-1160.47021	929.69855	907.70099	-1147.69788	927.93439	1144.69055	-1321.00171	947.12201	963.56732	-1309.84253	962.28003	1113.02515	-1148.87244	630.93677	856.22736	-1075.21191	469.21774	895.90552	-1070.88147	277.37219	890.33081	-1023.91852	70.58337	920.49725	-1053.13293	27.5163	960.37952	-872.30756	62.87295	940.55872	-1231.26538	637.04822	1182.73059	-1247.70911	457.98636	1147.93335	-1325.18359	281.07117	1153.19788	-1392.11292	74.01766	1104.13647	-1438.91028	45.0512	1054.58362	-1253.30713	30.24079	1091.30859	-1205.88281	1663.32556	1000.41522	NaN	NaN	NaN	NaN	NaN	NaN	NaN	NaN	NaN	NaN	NaN	NaN	NaN	NaN	NaN	NaN	NaN	NaN
3	0.02	-1112.41919	1607.1604	950.01849	-1110.95959	1616.68665	1082.65979	-1235.76855	1551.85681	958.54437	-1229.36011	1561.22253	1088.79797	-1257.67297	1406.39673	1029.73315	-1307.81494	1096.59521	1035.37036	-1140.0708	1322.64844	1018.74774	-1108.03357	1154.89209	1012.71332	-1308.29431	1237.90417	1136.55151	-1202.76135	1361.16125	867.66943	-1248.43225	1165.4884	804.51819	-1257.81921	1042.36768	794.39233	-1231.05603	915.35223	794.70746	-1201.97534	800.82599	826.93811	-1235.9353	801.94952	782.36731	-1212.87573	721.24158	791.02374	-1163.65442	1350.67664	1180.40564	-1131.95264	1134.34436	1257.88379	-1096.60889	1027.23059	1269.06189	-1053.51575	897.57208	1265.5675	-1013.48431	810.04242	1222.94385	-1033.05164	799.71576	1271.7887	-996.58685	736.50244	1256.89404	-1152.59351	928.60767	907.22882	-1141.12659	927.04065	1144.52771	-1313.74011	946.10394	962.82697	-1303.17017	961.29822	1112.31689	-1143.52258	629.03619	855.79376	-1070.27795	467.42831	896.93872	-1061.01233	276.70554	890.85645	-1007.44104	71.22386	919.89893	-1035.11389	27.43627	960	-855.12012	67.06136	938.37817	-1226.10364	636.41913	1182.70508	-1243.64478	457.44791	1147.93359	-1322.90491	281.245	1153.15967	-1391.6637	74.5945	1104.15332	-1438.70935	46.17913	1054.46094	-1253.1311	30.14713	1091.44641	-1198.9834	1662.57043	999.68817	NaN	NaN	NaN	NaN	NaN	NaN	NaN	NaN	NaN	NaN	NaN	NaN	NaN	NaN	NaN	NaN	NaN	NaN
4	0.03	-1105.479	1606.30737	948.95337	-1103.8844	1615.93176	1081.58911	-1228.6875	1550.75562	957.59485	-1222.19897	1560.30042	1087.93396	-1250.44666	1405.56262	1028.71741	-1300.77783	1095.76807	1034.49011	-1132.76892	1321.73413	1017.98218	-1100.88672	1153.66406	1012.20477	-1301.43909	1237.27319	1135.54492	-1195.19763	1360.11877	866.72882	-1241.43774	1164.33936	804.35645	-1251.46973	1041.16589	794.79932	-1225.68848	913.97052	795.26166	-1197.31775	799.2934	827.74786	-1231.55383	800.50909	783.34833	-1209.24426	719.62537	792.18762	-1156.62939	1349.88208	1179.58875	-1125.00098	1133.651	1257.16333	-1089.32715	1026.6073	1268.41492	-1045.48279	897.21698	1264.52161	-1004.8429	810.12415	1221.56445	-1024.44202	799.48322	1270.32727	-987.50409	736.59039	1255.18188	-1144.83313	927.51599	906.8916	-1134.6062	926.19373	1144.49121	-1306.20667	945.0871	961.96558	-1296.46753	960.29791	1111.48499	-1137.6897	627.38623	855.64893	-1065.27771	465.66632	897.91937	-1052.00708	276.04413	891.36554	-993.09357	71.76028	919.49487	-1019.16736	27.48928	959.86975	-839.93024	70.4178	935.96704	-1221.16577	636.24603	1183.31628	-1239.32617	456.94449	1147.95349	-1320.64185	281.35944	1152.63159	-1391.1925	75.39096	1104.10022	-1438.34729	47.2955	1054.42969	-1253.05688	30.19583	1091.60596	-1192.01245	1661.44202	998.48822	NaN	NaN	NaN	NaN	NaN	NaN	NaN	NaN	NaN	NaN	NaN	NaN	NaN	NaN	NaN	NaN	NaN	NaN
5	0.04	-1098.42993	1605.47986	947.88977	-1096.7511	1615.21387	1080.53271	-1221.56702	1549.83496	956.68744	-1214.979	1559.39539	1086.96191	-1243.04224	1404.73669	1027.57861	-1293.6355	1094.99304	1033.48889	-1125.45874	1320.90283	1017.2807	-1093.59375	1152.96619	1011.86188	-1294.56946	1236.63562	1134.38452	-1187.46875	1359.08557	865.73218	-1234.22168	1163.19678	804.06641	-1244.89917	1039.97607	795.0329	-1220.20215	912.44916	795.81525	-1193.50012	797.6076	828.9729	-1226.98499	798.89935	784.62231	-1205.42664	718.01001	793.3371	-1149.64197	1349.10925	1178.76819	-1118.09924	1132.94214	1256.39587	-1082.20813	1025.95874	1267.70483	-1037.64026	896.8233	1263.39441	-996.466	810.24304	1220.15002	-1016.06244	799.22394	1268.8136	-978.78271	736.64496	1253.45679	-1137.29309	926.40503	906.75482	-1127.99438	925.35883	1144.37439	-1298.73718	944.18372	960.94965	-1289.72095	959.35059	1110.53455	-1131.30981	625.87634	855.93903	-1059.90991	463.74524	898.95477	-1043.88599	275.33899	891.89679	-980.71704	72.02979	919.19208	-1005.66748	27.5087	959.95355	-826.95923	72.74545	934.11981	-1215.68237	635.72107	1182.99976	-1234.8136	456.48917	1147.93958	-1318.04932	281.73651	1152.63269	-1390.77124	76.4009	1104.14148	-1438.06067	48.71709	1054.39941	-1252.96558	30.04044	1091.51746	-1185.05261	1660.85278	997.18982	NaN	NaN	NaN	NaN	NaN	NaN	NaN	NaN	NaN	NaN	NaN	NaN	NaN	NaN	NaN	NaN	NaN	NaN
6	0.05	-1091.32837	1604.73132	946.79828	-1089.63855	1614.58008	1079.4292	-1214.38306	1548.91565	955.76514	-1207.80115	1558.60999	1085.99341	-1235.64954	1403.98633	1026.3501	-1286.39441	1094.26135	1032.39026	-1118.06042	1319.99597	1016.46301	-1086.33594	1151.93408	1011.32886	-1287.65125	1236.02051	1133.0835	-1179.60938	1358.05383	864.62653	-1226.69275	1162.02502	803.64539	-1238.05566	1038.77344	795.1405	-1214.37109	911.03918	796.36975	-1187.84668	796.10431	829.4184	-1222.22034	797.47607	785.49274	-1201.47925	716.34839	794.59857	-1142.65161	1348.37134	1177.88013	-1111.28613	1132.26685	1255.55054	-1075.21936	1025.33948	1266.87891	-1029.93994	896.46454	1262.17029	-988.20648	810.2157	1218.6687	-1007.95758	798.93719	1267.2533	-970.20233	736.61542	1251.75537	-1129.34375	925.52045	906.56683	-1121.36694	924.58655	1144.17883	-1291.19739	943.37335	959.82214	-1282.91443	958.44775	1109.44092	-1124.56177	624.61395	856.44916	-1054.35327	462.42374	899.54999	-1036.52588	274.50299	892.3186	-970.79163	71.72005	919.13763	-994.76501	27.16814	960.05396	-816.38782	73.82632	932.76794	-1210.0094	635.23242	1182.51379	-1230.1615	456.16934	1148.01099	-1315.33777	282.16965	1152.65552	-1390.15784	77.40786	1104.29004	-1437.78198	50.32645	1054.39539	-1252.78491	29.98898	1091.64465	-1178.0271	1659.74475	996.36023	NaN	NaN	NaN	NaN	NaN	NaN	NaN	NaN	NaN	NaN	NaN	NaN	NaN	NaN	NaN	NaN	NaN	NaN
7	0.06	-1084.13269	1604.05908	945.6272	-1082.52026	1614.02502	1078.27344	-1207.21692	1548.08167	954.60608	-1200.58508	1557.86011	1084.88599	-1228.24048	1403.34363	1025.12744	-1279.05896	1093.60083	1031.1814	-1110.60291	1319.30676	1015.61188	-1078.81165	1151.35242	1010.91718	-1280.66638	1235.40076	1131.67639	-1171.64087	1357.09875	863.52716	-1218.92053	1160.93579	803.09381	-1230.86731	1037.56921	795.06079	-1208.2406	909.61176	796.79443	-1183.76563	794.40222	830.66931	-1217.33276	796.12781	786.18323	-1197.44543	714.77045	795.76276	-1135.72949	1347.78894	1176.99182	-1104.62842	1131.61133	1254.6427	-1068.32739	1024.75256	1265.90332	-1022.49561	896.03638	1260.92908	-980.19867	810.23358	1217.23633	-1000.07751	798.65845	1265.65234	-961.987	736.60443	1250.02417	-1121.66382	924.49103	906.33771	-1114.61743	923.90094	1144.01294	-1283.49182	942.65216	958.57489	-1276.02051	957.66272	1108.21899	-1117.40454	623.58087	856.99933	-1048.1814	461.3078	899.91266	-1029.81689	273.58115	892.69904	-962.94794	71.13854	919.26819	-986.74542	26.42398	960.31207	-808.414	73.5445	932.25049	-1204.27271	634.84247	1182.25635	-1225.30981	455.88153	1148.1322	-1312.4657	282.6825	1152.68298	-1389.46423	78.55602	1104.56409	-1437.33325	52.01696	1054.65552	-1252.65051	29.8319	1091.65808	-1170.97766	1658.96863	995.14386	NaN	NaN	NaN	NaN	NaN	NaN	NaN	NaN	NaN	NaN	NaN	NaN	NaN	NaN	NaN	NaN	NaN	NaN
